# xmcd
#
# Track frame offsets: 
#        150
#        15420
#        31845
#        74076
#        104246
#        135365
#        163007
#
# Disc length: 2635 seconds
#
# Revision: 0
# Processed by: cddbd v1.5.2PL0 Copyright (c) Steve Scherf et al.
# Submitted via: ExactAudioCopy v0.95b4
#
DISCID=5a0a4907
DTITLE=Kayser Souzai - Wild Size
DYEAR=2002
DGENRE=
TTITLE0=radio edit
TTITLE1=alternativ radio edit
TTITLE2=original club mix
TTITLE3=tomcraft remix
TTITLE4=oliver lieb remix
TTITLE5=el loco remix
TTITLE6=necronomicon mix
EXTD=
EXTT0=
EXTT1=
EXTT2=
EXTT3=
EXTT4=
EXTT5=
EXTT6=
PLAYORDER=
